<svg xmlns="http://www.w3.org/2000/svg" viewBox="0 0 1800 1200" role="img" aria-label="Screenshot placeholder: Full-window sidebar + library grid.">
  <rect width="1800" height="1200" rx="16" fill="#141414" stroke="rgba(255,255,255,0.08)"/>
  <rect width="1800" height="52" fill="#1c1c1c"/>
  <circle cx="28" cy="26" r="7" fill="#ff5f56"/>
  <circle cx="52" cy="26" r="7" fill="#ffbd2e"/>
  <circle cx="76" cy="26" r="7" fill="#27c93f"/>
  <rect x="0" y="52" width="280" height="1148" fill="#0f0f0f"/>
  <g fill="#a8a39a" font-family="Inter Tight, sans-serif" font-size="14">
    <text x="24" y="110">Library</text>
    <text x="24" y="150" fill="#f2efe8">Albums</text>
    <text x="24" y="188">Artists</text>
    <text x="24" y="226">Songs</text>
    <text x="24" y="264">Playlists</text>
    <text x="24" y="330" fill="#a8a39a">Recently Added</text>
  </g>
  <g transform="translate(320,90)">
    <rect width="1440" height="1080" fill="none"/>
  </g>
  <g transform="translate(320,90)" fill="#1c1c1c">
    <rect width="320" height="320" rx="8"/>
    <rect x="360" width="320" height="320" rx="8"/>
    <rect x="720" width="320" height="320" rx="8"/>
    <rect x="1080" width="320" height="320" rx="8"/>
    <rect y="360" width="320" height="320" rx="8"/>
    <rect x="360" y="360" width="320" height="320" rx="8"/>
    <rect x="720" y="360" width="320" height="320" rx="8"/>
    <rect x="1080" y="360" width="320" height="320" rx="8"/>
    <rect y="720" width="320" height="320" rx="8"/>
    <rect x="360" y="720" width="320" height="320" rx="8"/>
    <rect x="720" y="720" width="320" height="320" rx="8"/>
    <rect x="1080" y="720" width="320" height="320" rx="8"/>
  </g>
  <text x="900" y="1170" font-family="Inter Tight, sans-serif" font-size="16" fill="#a8a39a" text-anchor="middle">Screenshot placeholder: Mac sidebar + library grid (1800x1200)</text>
</svg>
